<svg xmlns="http://www.w3.org/2000/svg" viewBox="0 0 1600 1100" width="1600" height="1100">
<defs><marker id="arrow_blue" viewBox="0 0 10 10" refX="9" refY="5" markerWidth="6" markerHeight="6" orient="auto-start-reverse"><path d="M 0 0 L 10 5 L 0 10 z" fill="#9ec5ff"/></marker></defs>
<rect width="1600" height="1100" fill="#000000"/>
<text x="800.0" y="90" text-anchor="middle" fill="#ffffff" font-family="Helvetica, Arial, sans-serif" font-size="32" font-weight="400">Confining gluon field</text>
<circle cx="800.0" cy="540" r="300" fill="none" stroke="#ffffff" stroke-width="2" stroke-dasharray="10,8"/>
<polygon points="747.91,244.56 518.09,642.61 1081.91,642.61" fill="#6b7a8f" fill-opacity="0.35" stroke="#9ec5ff" stroke-width="2.5" stroke-opacity="0.9"/>
<polygon points="902.61,258.09 501.14,513.85 950.00,799.81" fill="none" stroke="#d4a857" stroke-width="2.5" stroke-dasharray="8,5" stroke-opacity="0.95"/>
<path d="M 800.00 410.00 Q 750.64 511.50 687.42 605.00" fill="none" stroke="#ffffff" stroke-width="1.2" stroke-opacity="0.75"/>
<path d="M 800.00 410.00 Q 743.71 507.50 687.42 605.00" fill="none" stroke="#ffffff" stroke-width="1.2" stroke-opacity="0.75"/>
<path d="M 800.00 410.00 Q 736.78 503.50 687.42 605.00" fill="none" stroke="#ffffff" stroke-width="1.2" stroke-opacity="0.75"/>
<path d="M 687.42 605.00 Q 800.00 597.00 912.58 605.00" fill="none" stroke="#ffffff" stroke-width="1.2" stroke-opacity="0.75"/>
<path d="M 687.42 605.00 Q 800.00 605.00 912.58 605.00" fill="none" stroke="#ffffff" stroke-width="1.2" stroke-opacity="0.75"/>
<path d="M 687.42 605.00 Q 800.00 613.00 912.58 605.00" fill="none" stroke="#ffffff" stroke-width="1.2" stroke-opacity="0.75"/>
<path d="M 800.00 410.00 Q 863.22 503.50 912.58 605.00" fill="none" stroke="#ffffff" stroke-width="1.2" stroke-opacity="0.75"/>
<path d="M 800.00 410.00 Q 856.29 507.50 912.58 605.00" fill="none" stroke="#ffffff" stroke-width="1.2" stroke-opacity="0.75"/>
<path d="M 800.00 410.00 Q 849.36 511.50 912.58 605.00" fill="none" stroke="#ffffff" stroke-width="1.2" stroke-opacity="0.75"/>
<circle cx="800.00" cy="410.00" r="52" fill="#000000" stroke="#ffffff" stroke-width="2"/>
<text x="800.00" y="406.00" text-anchor="middle" fill="#ffffff" font-family="Helvetica, Arial, sans-serif" font-size="24" font-weight="600">u</text>
<text x="800.00" y="428.00" text-anchor="middle" fill="#ffffff" font-family="Helvetica, Arial, sans-serif" font-size="16">+2/3 e</text>
<circle cx="687.42" cy="605.00" r="52" fill="#000000" stroke="#ffffff" stroke-width="2"/>
<text x="687.42" y="601.00" text-anchor="middle" fill="#ffffff" font-family="Helvetica, Arial, sans-serif" font-size="24" font-weight="600">d</text>
<text x="687.42" y="623.00" text-anchor="middle" fill="#ffffff" font-family="Helvetica, Arial, sans-serif" font-size="16">-1/3 e</text>
<circle cx="912.58" cy="605.00" r="52" fill="#000000" stroke="#ffffff" stroke-width="2"/>
<text x="912.58" y="601.00" text-anchor="middle" fill="#ffffff" font-family="Helvetica, Arial, sans-serif" font-size="24" font-weight="600">u</text>
<text x="912.58" y="623.00" text-anchor="middle" fill="#ffffff" font-family="Helvetica, Arial, sans-serif" font-size="16">+2/3 e</text>
<text x="800.0" y="545" text-anchor="middle" fill="#ffffff" font-family="Helvetica, Arial, sans-serif" font-size="17" font-style="italic">Color flux</text>
<text x="800.0" y="565" text-anchor="middle" fill="#ffffff" font-family="Helvetica, Arial, sans-serif" font-size="17" font-style="italic">tubes</text>
<text x="732.28" y="155.92" text-anchor="middle" fill="#9ec5ff" font-family="Helvetica, Arial, sans-serif" font-size="22" font-weight="500">0.831 fm</text>
<line x1="742.70" y1="171.68" x2="746.86" y2="238.65" stroke="#9ec5ff" stroke-width="1.5" marker-end="url(#arrow_blue)"/>
<text x="424.12" y="676.81" text-anchor="middle" fill="#9ec5ff" font-family="Helvetica, Arial, sans-serif" font-size="22" font-weight="500">0.8409 fm</text>
<line x1="480.50" y1="671.34" x2="512.45" y2="644.66" stroke="#9ec5ff" stroke-width="1.5" marker-end="url(#arrow_blue)"/>
<text x="1175.88" y="676.81" text-anchor="middle" fill="#9ec5ff" font-family="Helvetica, Arial, sans-serif" font-size="22" font-weight="500">0.8751 fm</text>
<line x1="1119.50" y1="671.34" x2="1087.55" y2="644.66" stroke="#9ec5ff" stroke-width="1.5" marker-end="url(#arrow_blue)"/>
<rect x="1180" y="840" width="380" height="130" fill="none" stroke="#555555" stroke-width="1"/>
<rect x="1200" y="865" width="40" height="20" fill="#6b7a8f" fill-opacity="0.35" stroke="#9ec5ff" stroke-width="2"/>
<text x="1255" y="881" fill="#ffffff" font-family="Helvetica, Arial, sans-serif" font-size="18">Measurement axis 1</text>
<rect x="1200" y="915" width="40" height="20" fill="none" stroke="#d4a857" stroke-width="2" stroke-dasharray="8,5"/>
<text x="1255" y="931" fill="#ffffff" font-family="Helvetica, Arial, sans-serif" font-size="18">Measurement axis 2</text>
<line x1="80" y1="980" x2="1520" y2="980" stroke="#ffffff" stroke-width="1.5"/>
<text x="80" y="1025" fill="#ffffff" font-family="Helvetica, Arial, sans-serif" font-size="22" font-weight="400">The same three-body valence structure (uud) projected along two measurement axes yields distinct apparent triangles.</text>
<text x="80" y="1057" fill="#ffffff" font-family="Helvetica, Arial, sans-serif" font-size="22" font-weight="400">Probe-dependent radius values arise from axis-dependent projections of a single underlying non-spherical geometry.</text>
</svg>